<?xml version="1.0" encoding="utf-8"?>
<svg xmlns="http://www.w3.org/2000/svg" viewBox="0 0 50 50" width="500" height="500">
  <path d="M6 4C4.9069372 4 4 4.9069372 4 6L4 44C4 45.093063 4.9069372 46 6 46L44 46C45.093063 46 46 45.093063 46 44L46 6C46 4.9069372 45.093063 4 44 4L6 4 z M 6 6L44 6L44 44L6 44L6 6 z M 34.5 14L34.5 21.867188L34.5 21.875C33.893 20.564 32.823125 20 31.703125 20C29.303125 20 27 22.372 27 27.875C27 32.996 28.856469 36.3125 31.480469 36.3125C33.111469 36.3125 34.02 35.463 34.5 34.375L34.5 36L37 36C36.968 35.104 37 33.681 37 32.625L37 14L34.5 14 z M 13.035156 15L18.517578 25.5L13.035156 36L15.5 36L19.755859 27.873047L24 36L26.5 36L21 25.5L26.5 15L24 15L19.755859 23.126953L15.5 15L13.035156 15 z M 32.246094 22.111328C33.430094 22.111328 34.358328 23.525 34.486328 25.125C34.518328 25.476 34.486328 25.8685 34.486328 26.1875L34.486328 30.75C34.486328 30.75 34.457328 31.337 34.361328 31.625C33.817328 33.864 32.824641 34.263672 32.056641 34.263672C30.264641 34.263672 29.462891 31.139 29.462891 27.875C29.462891 24.772 30.198094 22.111328 32.246094 22.111328 z" fill="#FFFFFF" />
</svg>