<?xml version="1.0" encoding="utf-8"?>
<svg xmlns="http://www.w3.org/2000/svg" viewBox="0 0 32 32" width="512" height="512">
  <path d="M16.949219 2.9902344 A 1.0001 1.0001 0 0 0 16.251953 4.6640625L21.195312 10.224609C20.51812 10.087661 19.816934 10.010077 19.095703 10.003906 A 1.0001 1.0001 0 0 0 19 10L7 10 A 1.0001 1.0001 0 1 0 7 12L12.724609 12C12.692129 12.023622 12.657144 12.044381 12.625 12.068359 A 1.0001 1.0001 0 0 0 12.335938 12.251953L3.3359375 20.251953 A 1.0002766 1.0002766 0 0 0 4.6640625 21.748047L9.0976562 17.806641C9.0397846 18.198051 9 18.594449 9 19C9 23.967 13.481 28 19 28C24.519 28 29 23.967 29 19C29 16.408961 27.774216 14.07836 25.824219 12.435547 A 1.0002763 1.0002763 0 0 0 25.748047 12.335938L17.748047 3.3359375 A 1.0001 1.0001 0 0 0 16.949219 2.9902344 z M 19 12C22.512 12.002 25.966 14.174 26 18C26.03 21.463 23.125 24.002 19 24C15.017 23.998 12.019 21.533 12 18C11.98 14.295 15.013 11.998 19 12 z M 18.832031 14 A 4 3.5 0 0 0 14.832031 17.5 A 4 3.5 0 0 0 18.832031 21 A 4 3.5 0 0 0 22.832031 17.5 A 4 3.5 0 0 0 18.832031 14 z" fill="#FFFFFF" />
</svg>