<?xml version="1.0" encoding="utf-8"?>
<svg xmlns="http://www.w3.org/2000/svg" viewBox="0 0 32 32" width="512" height="512">
  <path d="M5 5L5 27L27 27L27 5L5 5 z M 7 7L25 7L25 25L7 25L7 7 z M 11 10L11 15.509766L11 21.990234C16.93 21.990234 18.116563 22.070234 19.226562 21.740234C19.876562 21.540234 21.65625 20.900391 21.65625 18.650391C21.65625 17.650391 21.356484 15.959062 19.396484 15.539062L19.396484 15.509766L19.027344 15.509766C20.027344 15.059766 20.65625 14.210937 20.65625 12.960938C20.65625 12.640937 20.746094 10 17.246094 10L11 10 z M 13 12L17 12C18.509 12 18.65625 12.853234 18.65625 13.490234C18.65625 15.044234 17.03 15 17 15L13 15L13 12 z M 13 17L17.759766 17C19.620766 17 19.65625 18.176469 19.65625 18.480469C19.65625 20.040469 18.044609 20 17.849609 20L13 20L13 17 z" fill="#FFFFFF" />
</svg>