<?xml version="1.0" encoding="utf-8"?>
<svg xmlns="http://www.w3.org/2000/svg" viewBox="0 0 32 32" width="512" height="512">
  <path d="M12.5 1C9.467 1 7 3.467 7 6.5C7 8.1579175 7.7405106 9.6431625 8.9042969 10.652344C7.1773693 11.580958 6 13.405492 6 15.5C6 17.360625 6.9316558 19.00426 8.3496094 20C6.9316558 20.99574 6 22.639375 6 24.5C6 27.533 8.467 30 11.5 30C14.533 30 17 27.533 17 24.5L17 19L17 12L20.5 12C23.533 12 26 9.533 26 6.5C26 3.467 23.533 1 20.5 1L12.5 1 z M 12.5 3L20.5 3C22.43 3 24 4.57 24 6.5C24 8.43 22.43 10 20.5 10L17 10L12.5 10C10.57 10 9 8.43 9 6.5C9 4.57 10.57 3 12.5 3 z M 11.5 12L12.5 12L15 12L15 19L11.5 19C9.57 19 8 17.43 8 15.5C8 13.57 9.57 12 11.5 12 z M 21 12 A 4 4 0 0 0 21 20 A 4 4 0 0 0 21 12 z M 11.5 21L15 21L15 24.5C15 26.43 13.43 28 11.5 28C9.57 28 8 26.43 8 24.5C8 22.57 9.57 21 11.5 21 z" fill="#FFFFFF" />
</svg>