<?xml version="1.0" encoding="utf-8"?>
<svg xmlns="http://www.w3.org/2000/svg" viewBox="0 0 32 32" width="512" height="512">
  <path d="M12.970703 3 A 1.0001 1.0001 0 0 0 12.445312 3.1679688L3.4453125 9.1679688 A 1.0001 1.0001 0 0 0 3 10L3 25 A 1.0001 1.0001 0 0 0 3.7246094 25.958984L3.7246094 25.960938 A 1.0001 1.0001 0 0 0 3.734375 25.962891L17.724609 29.960938 A 1.0001 1.0001 0 0 0 18.574219 29.818359L28.574219 22.818359 A 1.0001 1.0001 0 0 0 29 22L29 7 A 1.0001 1.0001 0 0 0 28.195312 6.0195312L28.169922 6.0136719 A 1.0001 1.0001 0 0 0 28.160156 6.0117188L13.267578 3.0351562 A 1.0001 1.0001 0 0 0 13.208984 3.0214844L13.195312 3.0195312 A 1.0001 1.0001 0 0 0 12.970703 3 z M 14 5.21875L25.269531 7.4726562L17.826172 11.939453L14 11.119141L14 5.21875 z M 12 5.8691406L12 10.691406L6.5253906 9.5175781L12 5.8691406 z M 27 8.765625L27 20.697266L19 18.564453L19 13.566406L27 8.765625 z M 5 11.238281L12 12.738281L12 17.511719L5 22.957031L5 11.238281 z M 14 13.166016L17 13.808594L17 18.03125L14 17.230469L14 13.166016 z M 13.220703 19.09375L17 20.101562L17 27.673828L6.1679688 24.580078L13.220703 19.09375 z M 19 20.634766L25.667969 22.414062L19 27.080078L19 20.634766 z" fill="#FFFFFF" />
</svg>