<?xml version="1.0" encoding="utf-8"?>
<svg xmlns="http://www.w3.org/2000/svg" viewBox="0 0 32 32" width="512" height="512">
  <path d="M16 7.1679688C7.165 7.1679688 0 10.932031 0 15.582031C0 20.232031 7.165 23.998047 16 23.998047C24.835 23.998047 32 20.232031 32 15.582031C32 10.932031 24.835 7.1679687 16 7.1679688 z M 16 8.0078125C24.57 8.0078125 31.160156 11.617031 31.160156 15.582031C31.160156 19.547031 24.565 23.158203 16 23.158203C7.43 23.158203 0.83984375 19.547031 0.83984375 15.582031C0.83984375 11.617031 7.435 8.0078125 16 8.0078125 z M 14.056641 9.6757812L12.439453 18.015625L14.244141 18.015625L15.175781 13.236328C16.644781 13.236328 17.252531 13.177844 17.519531 13.464844C17.796531 13.761844 17.654578 14.087625 16.892578 18.015625L18.722656 18.015625C19.514656 13.954625 19.864812 13.092922 19.132812 12.419922C18.435812 11.776922 16.991594 11.890625 15.433594 11.890625L15.863281 9.6757812L14.056641 9.6757812 z M 6.4882812 11.896484L4.8691406 20.242188L6.6855469 20.242188L7.1152344 18.025391C9.1482344 18.025391 10.411125 18.173078 11.578125 17.080078C12.869125 15.893078 13.206156 13.780656 12.285156 12.722656C11.805156 12.168656 11.032375 11.896484 9.984375 11.896484L6.4882812 11.896484 z M 20.679688 11.896484L19.058594 20.242188L20.878906 20.242188L21.308594 18.025391C23.445594 18.025391 24.628484 18.149078 25.771484 17.080078C27.062484 15.893078 27.399516 13.780656 26.478516 12.722656C25.998516 12.168656 25.225734 11.896484 24.177734 11.896484L20.679688 11.896484 z M 9.3359375 13.210938C10.470781 13.242906 11.120203 13.483203 10.845703 14.908203C10.454703 16.912203 9.0759062 16.705078 7.3789062 16.705078L8.0566406 13.212891C8.5266406 13.212891 8.9576562 13.200281 9.3359375 13.210938 z M 23.529297 13.210938C24.665547 13.242906 25.307703 13.483203 25.033203 14.908203C24.637203 16.941203 23.218406 16.705078 21.566406 16.705078L22.244141 13.212891C22.716641 13.212891 23.150547 13.200281 23.529297 13.210938 z" fill="#FFFFFF" />
</svg>