<?xml version="1.0" encoding="utf-8"?>
<svg xmlns="http://www.w3.org/2000/svg" viewBox="0 0 64 64" width="512" height="512">
  <path d="M44.162109 5.0175781C44.032059 5.0270334 43.902255 5.0458498 43.773438 5.0742188C43.258166 5.1876944 42.764546 5.4547967 42.375 5.890625L24.833984 25.511719C22.70109 23.779464 20.332257 21.855715 18.636719 20.478516C17.062518 19.199871 15.745316 18.130726 14.818359 17.376953C14.354881 17.000067 13.988927 16.701951 13.736328 16.496094C13.610029 16.393165 13.512168 16.314476 13.445312 16.259766C13.414262 16.234356 13.39175 16.214962 13.375 16.201172C13.375 16.201172 13.373047 16.199219 13.373047 16.199219C13.373047 16.199219 13.371094 16.199219 13.371094 16.199219C12.98614 15.85276 12.466755 15.636719 11.908203 15.636719C11.5069 15.636719 11.381407 15.722488 11.154297 15.804688C10.927186 15.886878 10.676788 15.991937 10.400391 16.115234C9.8475964 16.361828 9.1965478 16.678993 8.5683594 16.996094C7.3119825 17.630295 6.1445312 18.261719 6.1445312 18.261719L6.1523438 18.275391C5.4728419 18.647591 5 19.361568 5 20.181641L5 45C5 45.798039 5.4475422 46.496565 6.0976562 46.876953 A 1.0001377 1.0001377 0 0 0 6.2402344 46.966797C6.2402344 46.966797 7.3254196 47.51849 8.4667969 48.09375C9.0374855 48.38138 9.6221885 48.67462 10.09375 48.908203C10.565311 49.141786 10.843984 49.286563 11.091797 49.386719 A 1.0001 1.0001 0 0 0 11.09375 49.386719C11.342823 49.486709 11.619568 49.544922 11.908203 49.544922C12.113124 49.544922 12.287847 49.448532 12.478516 49.394531 A 1.0001 1.0001 0 0 0 12.984375 49.261719C12.984388 49.261712 12.989634 49.258113 12.990234 49.257812C12.992534 49.256512 12.995747 49.25722 12.998047 49.255859 A 1.0001 1.0001 0 0 0 13.134766 49.160156 A 1.0001 1.0001 0 0 0 13.193359 49.111328C13.219139 49.090148 13.246086 49.067496 13.285156 49.035156C13.381466 48.955416 13.519199 48.840371 13.693359 48.695312C14.04168 48.405198 14.536485 47.993311 15.126953 47.5C16.30789 46.513377 17.874621 45.201645 19.441406 43.890625C22.218953 41.566492 24.396257 39.743525 24.990234 39.246094C31.577297 46.395415 38.720738 54.151015 42.404297 58.150391C43.175268 58.98725 44.336518 59.175386 45.259766 58.837891 A 1.0001 1.0001 0 0 0 45.474609 58.751953L57.103516 52.763672C58.266511 52.164002 59 50.960851 59 49.652344L59 14.339844C59 13.028709 58.263543 11.82293 57.097656 11.224609L45.667969 5.3613281C45.622162 5.3346715 45.574452 5.3127558 45.527344 5.2890625L45.435547 5.2421875 A 1.0001 1.0001 0 0 0 45.310547 5.1875C45.305156 5.185399 45.300325 5.1817497 45.294922 5.1796875C45.280349 5.1741252 45.264696 5.1713085 45.25 5.1660156 A 1.0001 1.0001 0 0 0 45.242188 5.1640625C44.903216 5.043218 44.53338 4.990585 44.162109 5.0175781 z M 44.398438 7C44.45539 7.0077872 44.512486 7.0255485 44.570312 7.046875L44.761719 7.1425781C44.907917 7.2457285 45 7.4027101 45 7.65625L45 19.867188L31.658203 31.052734C30.907013 30.442975 30.90224 30.439313 30.144531 29.824219C28.780948 28.717285 27.717054 27.852189 26.388672 26.773438L43.865234 7.2226562C44.038416 7.0288988 44.216236 6.9750874 44.398438 7 z M 47 8.2929688L56.183594 13.003906C56.685707 13.261586 57 13.774978 57 14.339844L57 49.652344C57 50.215837 56.688505 50.727998 56.1875 50.986328L47 55.716797L47 8.2929688 z M 52 16 A 1.0001 1.0001 0 1 0 52 18L54 18 A 1.0001 1.0001 0 1 0 54 16L52 16 z M 11.957031 17.65625C11.983035 17.664207 12.011888 17.666366 12.033203 17.685547C12.100233 17.746167 12.078666 17.724574 12.097656 17.740234C12.117886 17.756914 12.145257 17.778461 12.179688 17.806641C12.248558 17.863001 12.345812 17.943502 12.472656 18.046875C12.726344 18.25362 13.092879 18.55257 13.556641 18.929688C14.484165 19.683922 15.800654 20.752488 17.375 22.03125C19.266935 23.567974 21.877653 25.686986 24.291016 27.646484 A 1.0001164 1.0001164 0 0 0 24.316406 27.667969C25.91125 28.96288 27.226656 30.030928 28.884766 31.376953C36.952563 37.926254 44.455444 44.015056 45 44.457031L45 56.349609C45 56.692593 44.829756 56.863261 44.585938 56.958984C44.342118 57.054707 44.10661 57.046326 43.875 56.794922C39.454463 51.995382 30.668292 42.456488 22.976562 34.109375C22.165096 33.228766 21.640072 32.659624 20.859375 31.8125 A 1.0001 1.0001 0 0 0 20.669922 31.605469C17.8331 28.527302 14.958071 25.40702 12.943359 23.222656C11.635186 21.804326 10.565442 20.646247 9.8203125 19.839844C9.4865873 19.478675 9.2414383 19.215688 9.0449219 19.003906C9.2535691 18.8964 9.2510464 18.89213 9.4707031 18.78125C10.08314 18.472101 10.714731 18.1645 11.214844 17.941406C11.4649 17.829859 11.682575 17.740344 11.833984 17.685547C11.884645 17.667211 11.919551 17.663479 11.957031 17.65625 z M 7.1816406 20C7.2193166 20 7.2445443 20.014057 7.2695312 20.029297C7.3204852 20.083887 7.3941503 20.162012 7.4902344 20.265625C7.6889649 20.479928 7.9794065 20.794506 8.3515625 21.197266C8.9613193 21.857164 9.9098087 22.886233 10.908203 23.96875L10.908203 41.101562L7.3691406 45.064453L7.3222656 45.115234C7.2811466 45.161254 7.2381346 45.181641 7.1816406 45.181641C7.0697326 45.181636 7 45.1111 7 45L7 20.181641C7 20.068712 7.0687121 20 7.1816406 20 z M 52 21 A 1.0001 1.0001 0 1 0 52 23L54 23 A 1.0001 1.0001 0 1 0 54 21L52 21 z M 45 22.478516L45 41.880859C43.778682 40.889817 38.919269 36.947044 33.238281 32.335938L45 22.478516 z M 52 26 A 1.0001 1.0001 0 1 0 52 28L54 28 A 1.0001 1.0001 0 1 0 54 26L52 26 z M 12.908203 26.136719C14.649949 28.025779 16.587219 30.128022 18.679688 32.398438L12.908203 38.861328L12.908203 26.136719 z M 52 31 A 1.0001 1.0001 0 1 0 52 33L54 33 A 1.0001 1.0001 0 1 0 54 31L52 31 z M 20.041016 33.876953C20.588475 34.471016 20.944625 34.855788 21.505859 35.464844C22.288625 36.314305 22.833123 36.905531 23.632812 37.773438C22.990116 38.311665 20.898644 40.064338 18.158203 42.357422C16.591614 43.668277 15.023907 44.978873 13.84375 45.964844C13.253671 46.457829 12.760848 46.869368 12.414062 47.158203C12.240671 47.302621 12.103097 47.416871 12.009766 47.494141C11.990896 47.509761 11.981997 47.516747 11.966797 47.529297C11.948767 47.535897 11.932683 47.544922 11.908203 47.544922C11.883513 47.544922 11.863864 47.54072 11.839844 47.53125L11.837891 47.53125C11.867461 47.54311 11.443583 47.346586 10.980469 47.117188C10.516499 46.887364 9.9356239 46.595089 9.3671875 46.308594C9.2160013 46.232395 9.2191516 46.232411 9.0722656 46.158203L20.041016 33.876953 z M 52 36 A 1.0001 1.0001 0 1 0 52 38L54 38 A 1.0001 1.0001 0 1 0 54 36L52 36 z M 52 41 A 1.0001 1.0001 0 1 0 52 43L54 43 A 1.0001 1.0001 0 1 0 54 41L52 41 z M 52 46 A 1.0001 1.0001 0 1 0 52 48L54 48 A 1.0001 1.0001 0 1 0 54 46L52 46 z" fill="#FFFFFF" />
</svg>