<?xml version="1.0" encoding="utf-8"?>
<svg xmlns="http://www.w3.org/2000/svg" viewBox="0 0 80 80" width="480" height="480">
  <path d="M52.564453 7.6464844C52.361652 7.6419938 52.15974 7.6537058 51.958984 7.6796875C51.155963 7.7836143 50.384238 8.1298216 49.761719 8.703125L24.595703 31.890625L16.113281 25.365234 A 1.0001 1.0001 0 0 0 16.113281 25.363281C14.856958 24.397567 13.037439 24.586513 12.005859 25.791016L8.4882812 29.892578C7.4476828 31.106113 7.552215 32.95152 8.7207031 34.041016 A 1.0001 1.0001 0 0 0 8.7304688 34.048828L15.386719 40.095703L8.8046875 45.947266C7.5902906 47.026067 7.4616789 48.908914 8.5195312 50.142578L12.005859 54.208984C13.037439 55.413487 14.856958 55.602433 16.113281 54.636719L24.388672 48.273438L49.767578 71.326172C51.012865 72.457041 52.841907 72.686742 54.328125 71.900391L67.871094 64.730469C69.17869 64.038055 69.998047 62.674749 69.998047 61.195312L69.998047 18.806641C69.998047 17.327204 69.17869 15.963898 67.871094 15.271484L54.34375 8.109375C53.782992 7.8125326 53.172857 7.659956 52.564453 7.6464844 z M 52.214844 9.6601562C52.615322 9.6083332 53.03188 9.6777432 53.408203 9.8769531L66.935547 17.039062C67.591951 17.38665 67.998047 18.064077 67.998047 18.806641L67.998047 61.195312C67.998047 61.937877 67.591951 62.615304 66.935547 62.962891L53.392578 70.132812C52.645599 70.528036 51.739922 70.413246 51.113281 69.845703L51.111328 69.84375L10.082031 32.574219C9.6858156 32.201506 9.653449 31.608569 10.007812 31.195312L13.523438 27.091797 A 1.0001 1.0001 0 0 0 13.525391 27.091797C13.877367 26.680819 14.463047 26.620333 14.892578 26.949219L23.916016 33.890625 A 1.0001 1.0001 0 0 0 23.919922 33.894531 A 1.0001 1.0001 0 0 0 24.167969 34.083984L32.761719 40.695312 A 1.0001 1.0001 0 0 0 33.009766 40.886719 A 1.0001 1.0001 0 0 0 33.015625 40.888672L52.390625 55.792969 A 1.0001 1.0001 0 0 0 54 55L54 25 A 1.0001 1.0001 0 0 0 52.390625 24.207031L33.5 38.738281L26.205078 33.126953L51.117188 10.173828C51.430667 9.8851317 51.814365 9.7119795 52.214844 9.6601562 z M 53 12C52.45 12 52 12.440234 52 12.990234C52 13.550234 52.45 14 53 14C53.55 14 54 13.550234 54 12.990234C54 12.440234 53.55 12 53 12 z M 53 16C52.45 16 52 16.45 52 17C52 17.551 52.45 18 53 18C53.55 18 54 17.551 54 17C54 16.45 53.55 16 53 16 z M 53 20C52.45 20 52 20.438281 52 20.988281C52 21.549281 52.45 22 53 22C53.55 22 54 21.549281 54 20.988281C54 20.438281 53.55 20 53 20 z M 52 27.03125L52 52.96875L35.140625 40L52 27.03125 z M 16.876953 41.449219L22.884766 46.90625L14.892578 53.050781C14.463047 53.379667 13.877367 53.319181 13.525391 52.908203 A 1.0001 1.0001 0 0 0 13.523438 52.908203L10.037109 48.839844C9.6749622 48.417508 9.7172129 47.812558 10.132812 47.443359L16.876953 41.449219 z M 53 58C52.45 58 52 58.440234 52 58.990234C52 59.550234 52.45 60 53 60C53.55 60 54 59.550234 54 58.990234C54 58.440234 53.55 58 53 58 z M 53 62C52.45 62 52 62.45 52 63C52 63.551 52.45 64 53 64C53.55 64 54 63.551 54 63C54 62.45 53.55 62 53 62 z M 53 66C52.45 66 52 66.438281 52 66.988281C52 67.549281 52.45 68 53 68C53.55 68 54 67.549281 54 66.988281C54 66.438281 53.55 66 53 66 z" fill="#FFFFFF" />
</svg>